<svg width="48" height="30" viewBox="0 0 48 30" fill="none" xmlns="http://www.w3.org/2000/svg">
<path d="M20.9246 14.9292H16.283C15.5913 14.9292 15.033 15.4875 15.033 16.1792C15.033 16.8709 15.5913 17.4292 16.283 17.4292H20.9246C21.6163 17.4292 22.1746 16.8709 22.1746 16.1792C22.1746 15.4875 21.6163 14.9292 20.9246 14.9292Z" fill="#DC1E36"/>
<path d="M11.6456 23.5503C11.1206 23.5503 10.6914 23.9753 10.6914 24.5045C10.6914 25.0295 11.1164 25.4586 11.6456 25.4586C12.1706 25.4586 12.5997 25.0336 12.5997 24.5045C12.5997 23.9753 12.1706 23.5503 11.6456 23.5503Z" fill="#DC1E36"/>
<path d="M36.6715 23.5503C36.1465 23.5503 35.7173 23.9753 35.7173 24.5045C35.7173 25.0295 36.1423 25.4586 36.6715 25.4586C37.1965 25.4586 37.6256 25.0336 37.6256 24.5045C37.6256 23.9753 37.2006 23.5503 36.6715 23.5503Z" fill="#DC1E36"/>
<path d="M41.5883 2.6167C41.1467 2.6167 40.7883 2.97503 40.7883 3.4167C40.7883 3.85837 41.1467 4.2167 41.5883 4.2167C42.03 4.2167 42.3883 3.85837 42.3883 3.4167C42.3883 2.97503 42.0258 2.6167 41.5883 2.6167Z" fill="#DC1E36"/>
<path d="M36.892 2.6167C36.4504 2.6167 36.092 2.97503 36.092 3.4167C36.092 3.85837 36.4504 4.2167 36.892 4.2167C37.3337 4.2167 37.692 3.85837 37.692 3.4167C37.692 2.97503 37.3337 2.6167 36.892 2.6167Z" fill="#DC1E36"/>
<path d="M39.2414 4.96289C38.7997 4.96289 38.4414 5.32122 38.4414 5.76289C38.4414 6.20455 38.7997 6.56289 39.2414 6.56289C39.6831 6.56289 40.0414 6.20455 40.0414 5.76289C40.0414 5.32122 39.6789 4.96289 39.2414 4.96289Z" fill="#DC1E36"/>
<path d="M39.2414 9.65869C38.7997 9.65869 38.4414 10.017 38.4414 10.4587C38.4414 10.9004 38.7997 11.2587 39.2414 11.2587C39.6831 11.2587 40.0414 10.9004 40.0414 10.4587C40.0372 10.017 39.6789 9.65869 39.2414 9.65869Z" fill="#DC1E36"/>
<path d="M43.9333 9.65869C43.4916 9.65869 43.1333 10.017 43.1333 10.4587C43.1333 10.9004 43.4916 11.2587 43.9333 11.2587C44.375 11.2587 44.7333 10.9004 44.7333 10.4587C44.7333 10.017 44.375 9.65869 43.9333 9.65869Z" fill="#DC1E36"/>
<path d="M41.5883 7.3125C41.1467 7.3125 40.7883 7.67083 40.7883 8.1125C40.7883 8.55417 41.1467 8.9125 41.5883 8.9125C42.03 8.9125 42.3883 8.55417 42.3883 8.1125C42.3883 7.67083 42.0258 7.3125 41.5883 7.3125Z" fill="#DC1E36"/>
<path d="M36.892 7.3125C36.4504 7.3125 36.092 7.67083 36.092 8.1125C36.092 8.55417 36.4504 8.9125 36.892 8.9125C37.3337 8.9125 37.692 8.55417 37.692 8.1125C37.692 7.67083 37.3337 7.3125 36.892 7.3125Z" fill="#DC1E36"/>
<path d="M41.5883 12.0044C41.1467 12.0044 40.7883 12.3627 40.7883 12.8044C40.7883 13.2461 41.1467 13.6044 41.5883 13.6044C42.03 13.6044 42.3883 13.2461 42.3883 12.8044C42.3883 12.3627 42.0258 12.0044 41.5883 12.0044Z" fill="#DC1E36"/>
<path d="M36.892 12.0044C36.4504 12.0044 36.092 12.3627 36.092 12.8044C36.092 13.2461 36.4504 13.6044 36.892 13.6044C37.3337 13.6044 37.692 13.2461 37.692 12.8044C37.692 12.3627 37.3337 12.0044 36.892 12.0044Z" fill="#DC1E36"/>
<path d="M39.2414 14.3501C38.7997 14.3501 38.4414 14.7084 38.4414 15.1501C38.4414 15.5918 38.7997 15.9501 39.2414 15.9501C39.6831 15.9501 40.0414 15.5918 40.0414 15.1501C40.0414 14.7084 39.6789 14.3501 39.2414 14.3501Z" fill="#DC1E36"/>
<path d="M43.9333 14.3501C43.4916 14.3501 43.1333 14.7084 43.1333 15.1501C43.1333 15.5918 43.4916 15.9501 43.9333 15.9501C44.375 15.9501 44.7333 15.5918 44.7333 15.1501C44.7333 14.7084 44.375 14.3501 43.9333 14.3501Z" fill="#DC1E36"/>
<path d="M43.9333 19.0459C43.4916 19.0459 43.1333 19.4042 43.1333 19.8459C43.1333 20.2876 43.4916 20.6459 43.9333 20.6459C44.375 20.6459 44.7333 20.2876 44.7333 19.8459C44.7333 19.4042 44.375 19.0459 43.9333 19.0459Z" fill="#DC1E36"/>
<path d="M41.5883 16.7002C41.1467 16.7002 40.7883 17.0585 40.7883 17.5002C40.7883 17.9419 41.1467 18.3002 41.5883 18.3002C42.03 18.3002 42.3883 17.9419 42.3883 17.5002C42.3883 17.0585 42.0258 16.7002 41.5883 16.7002Z" fill="#DC1E36"/>
<path d="M36.892 18.3002C37.3339 18.3002 37.692 17.942 37.692 17.5002C37.692 17.0584 37.3339 16.7002 36.892 16.7002C36.4502 16.7002 36.092 17.0584 36.092 17.5002C36.092 17.942 36.4502 18.3002 36.892 18.3002Z" fill="#DC1E36"/>
<path d="M32.2004 2.6167C31.7587 2.6167 31.4004 2.97503 31.4004 3.4167C31.4004 3.85837 31.7587 4.2167 32.2004 4.2167C32.6421 4.2167 33.0004 3.85837 33.0004 3.4167C33.0004 2.97503 32.6421 2.6167 32.2004 2.6167Z" fill="#DC1E36"/>
<path d="M27.5041 2.6167C27.0624 2.6167 26.7041 2.97503 26.7041 3.4167C26.7041 3.85837 27.0624 4.2167 27.5041 4.2167C27.9458 4.2167 28.3041 3.85837 28.3041 3.4167C28.3041 2.97503 27.9458 2.6167 27.5041 2.6167Z" fill="#DC1E36"/>
<path d="M29.8549 4.96289C29.4133 4.96289 29.0549 5.32122 29.0549 5.76289C29.0549 6.20455 29.4133 6.56289 29.8549 6.56289C30.2966 6.56289 30.6549 6.20455 30.6549 5.76289C30.6549 5.32122 30.2924 4.96289 29.8549 4.96289Z" fill="#DC1E36"/>
<path d="M34.5454 6.56289C34.9872 6.56289 35.3454 6.20472 35.3454 5.76289C35.3454 5.32106 34.9872 4.96289 34.5454 4.96289C34.1035 4.96289 33.7454 5.32106 33.7454 5.76289C33.7454 6.20472 34.1035 6.56289 34.5454 6.56289Z" fill="#DC1E36"/>
<path d="M29.8549 9.65869C29.4133 9.65869 29.0549 10.017 29.0549 10.4587C29.0549 10.9004 29.4133 11.2587 29.8549 11.2587C30.2966 11.2587 30.6549 10.9004 30.6549 10.4587C30.6508 10.017 30.2924 9.65869 29.8549 9.65869Z" fill="#DC1E36"/>
<path d="M34.5454 9.65869C34.1037 9.65869 33.7454 10.017 33.7454 10.4587C33.7454 10.9004 34.1037 11.2587 34.5454 11.2587C34.987 11.2587 35.3454 10.9004 35.3454 10.4587C35.3454 10.017 34.987 9.65869 34.5454 9.65869Z" fill="#DC1E36"/>
<path d="M32.2004 7.3125C31.7587 7.3125 31.4004 7.67083 31.4004 8.1125C31.4004 8.55417 31.7587 8.9125 32.2004 8.9125C32.6421 8.9125 33.0004 8.55417 33.0004 8.1125C33.0004 7.67083 32.6421 7.3125 32.2004 7.3125Z" fill="#DC1E36"/>
<path d="M27.5041 7.3125C27.0624 7.3125 26.7041 7.67083 26.7041 8.1125C26.7041 8.55417 27.0624 8.9125 27.5041 8.9125C27.9458 8.9125 28.3041 8.55417 28.3041 8.1125C28.3041 7.67083 27.9458 7.3125 27.5041 7.3125Z" fill="#DC1E36"/>
<path d="M32.2004 12.0044C31.7587 12.0044 31.4004 12.3627 31.4004 12.8044C31.4004 13.2461 31.7587 13.6044 32.2004 13.6044C32.6421 13.6044 33.0004 13.2461 33.0004 12.8044C33.0004 12.3627 32.6421 12.0044 32.2004 12.0044Z" fill="#DC1E36"/>
<path d="M27.5041 12.0044C27.0624 12.0044 26.7041 12.3627 26.7041 12.8044C26.7041 13.2461 27.0624 13.6044 27.5041 13.6044C27.9458 13.6044 28.3041 13.2461 28.3041 12.8044C28.3041 12.3627 27.9458 12.0044 27.5041 12.0044Z" fill="#DC1E36"/>
<path d="M29.8549 14.3501C29.4133 14.3501 29.0549 14.7084 29.0549 15.1501C29.0549 15.5918 29.4133 15.9501 29.8549 15.9501C30.2966 15.9501 30.6549 15.5918 30.6549 15.1501C30.6549 14.7084 30.2924 14.3501 29.8549 14.3501Z" fill="#DC1E36"/>
<path d="M34.5454 15.9501C34.9872 15.9501 35.3454 15.5919 35.3454 15.1501C35.3454 14.7083 34.9872 14.3501 34.5454 14.3501C34.1035 14.3501 33.7454 14.7083 33.7454 15.1501C33.7454 15.5919 34.1035 15.9501 34.5454 15.9501Z" fill="#DC1E36"/>
<path d="M29.8549 19.0459C29.4133 19.0459 29.0549 19.4042 29.0549 19.8459C29.0549 20.2876 29.4133 20.6459 29.8549 20.6459C30.2966 20.6459 30.6549 20.2876 30.6549 19.8459C30.6508 19.4042 30.2924 19.0459 29.8549 19.0459Z" fill="#DC1E36"/>
<path d="M32.2004 16.7002C31.7587 16.7002 31.4004 17.0585 31.4004 17.5002C31.4004 17.9419 31.7587 18.3002 32.2004 18.3002C32.6421 18.3002 33.0004 17.9419 33.0004 17.5002C33.0004 17.0585 32.6421 16.7002 32.2004 16.7002Z" fill="#DC1E36"/>
<path d="M27.5041 16.7002C27.0624 16.7002 26.7041 17.0585 26.7041 17.5002C26.7041 17.9419 27.0624 18.3002 27.5041 18.3002C27.9458 18.3002 28.3041 17.9419 28.3041 17.5002C28.3041 17.0585 27.9458 16.7002 27.5041 16.7002Z" fill="#DC1E36"/>
<path d="M27.5041 21.3916C27.0624 21.3916 26.7041 21.7499 26.7041 22.1916C26.7041 22.6333 27.0624 22.9916 27.5041 22.9916C27.9458 22.9916 28.3041 22.6333 28.3041 22.1916C28.3041 21.7499 27.9458 21.3916 27.5041 21.3916Z" fill="#DC1E36"/>
<path d="M25.1586 6.56289C25.6005 6.56289 25.9586 6.20472 25.9586 5.76289C25.9586 5.32106 25.6005 4.96289 25.1586 4.96289C24.7168 4.96289 24.3586 5.32106 24.3586 5.76289C24.3586 6.20472 24.7168 6.56289 25.1586 6.56289Z" fill="#DC1E36"/>
<path d="M25.1586 9.65869C24.717 9.65869 24.3586 10.017 24.3586 10.4587C24.3586 10.9004 24.717 11.2587 25.1586 11.2587C25.6003 11.2587 25.9586 10.9004 25.9586 10.4587C25.9586 10.017 25.6003 9.65869 25.1586 9.65869Z" fill="#DC1E36"/>
<path d="M25.1586 15.9501C25.6005 15.9501 25.9586 15.5919 25.9586 15.1501C25.9586 14.7083 25.6005 14.3501 25.1586 14.3501C24.7168 14.3501 24.3586 14.7083 24.3586 15.1501C24.3586 15.5919 24.7168 15.9501 25.1586 15.9501Z" fill="#DC1E36"/>
<path d="M25.1586 19.0459C24.717 19.0459 24.3586 19.4042 24.3586 19.8459C24.3586 20.2876 24.717 20.6459 25.1586 20.6459C25.6003 20.6459 25.9586 20.2876 25.9586 19.8459C25.9586 19.4042 25.6003 19.0459 25.1586 19.0459Z" fill="#DC1E36"/>
<path d="M44.5794 0.54603C44.3919 0.216863 44.0419 0.0126953 43.6627 0.0126953H41.5336H17.7711C15.7961 0.0126953 13.9336 1.0627 12.9127 2.7502L8.3919 10.2252L3.36273 12.0002C1.69189 12.5919 0.566895 14.1794 0.566895 15.9544V24.5502C0.566895 25.1335 1.03773 25.6044 1.62106 25.6044H6.3169C6.80856 28.1002 9.0044 29.9877 11.6461 29.9877C14.2877 29.9877 16.4836 28.1044 16.9752 25.6044H31.3336C31.3919 25.9002 31.4794 26.1877 31.5836 26.4669C31.5919 26.4919 31.6002 26.5169 31.6086 26.5419C31.7127 26.8044 31.8377 27.0544 31.9752 27.296C31.9961 27.3335 32.0169 27.3669 32.0419 27.4044C32.1836 27.6377 32.3419 27.8585 32.5169 28.0627C32.5419 28.0919 32.5711 28.121 32.5961 28.1502C32.7711 28.3502 32.9586 28.5335 33.1586 28.7044C33.1752 28.7169 33.1877 28.7335 33.2044 28.746C33.4127 28.9169 33.6336 29.0669 33.8627 29.2085C33.9086 29.2377 33.9544 29.2669 34.0002 29.2919C34.2252 29.421 34.4627 29.5294 34.7086 29.6252C34.7627 29.646 34.8169 29.6669 34.8711 29.6835C35.1211 29.771 35.3836 29.846 35.6502 29.896C35.6961 29.9044 35.7377 29.9085 35.7836 29.9169C36.0669 29.9627 36.3586 29.996 36.6586 29.996C36.6586 29.996 36.6627 29.996 36.6669 29.996C36.6669 29.996 36.6711 29.996 36.6752 29.996C36.9752 29.996 37.2627 29.9669 37.5502 29.9169C37.5961 29.9085 37.6419 29.9044 37.6836 29.896C37.9502 29.846 38.2086 29.771 38.4627 29.6835C38.5169 29.6627 38.5711 29.646 38.6252 29.6252C38.8711 29.5294 39.1044 29.421 39.3336 29.2919C39.3794 29.2669 39.4252 29.2377 39.4711 29.2085C39.7002 29.071 39.9211 28.921 40.1294 28.7502C40.1461 28.7377 40.1586 28.721 40.1752 28.7085C40.3752 28.5377 40.5627 28.3544 40.7377 28.1544C40.7627 28.1252 40.7919 28.096 40.8169 28.0669C40.9919 27.8585 41.1502 27.6377 41.2919 27.4085C41.3127 27.371 41.3377 27.3377 41.3586 27.3002C41.5002 27.0627 41.6211 26.8127 41.7252 26.5502C41.7336 26.5252 41.7419 26.5002 41.7544 26.4752C41.8586 26.2002 41.9461 25.9127 42.0044 25.6169H42.7627H44.8919C45.3627 25.6169 45.7794 25.3044 45.9086 24.8502C48.3586 16.2044 47.8127 6.2127 44.5794 0.54603ZM14.7211 3.84603C15.3627 2.78353 16.5336 2.1252 17.7752 2.1252H21.5919V10.0127H10.9877L14.7211 3.84603ZM11.6502 27.8752C9.8169 27.8752 8.32523 26.3835 8.32523 24.5502C8.32523 22.7169 9.8169 21.2252 11.6502 21.2252C13.4836 21.2252 14.9752 22.7169 14.9752 24.5502C14.9752 26.3835 13.4836 27.8752 11.6502 27.8752ZM36.6711 27.8752C34.8377 27.8752 33.3461 26.3835 33.3461 24.5502C33.3461 24.1794 33.4211 23.8294 33.5336 23.496C33.9794 22.1794 35.2086 21.2252 36.6711 21.2252C38.1336 21.2252 39.3669 22.1794 39.8086 23.496C39.9211 23.8294 39.9961 24.1794 39.9961 24.5502C39.9961 26.3835 38.5044 27.8752 36.6711 27.8752ZM45.2961 13.5877C45.2961 14.0877 45.2919 14.5919 45.2752 15.1002C45.2752 15.1585 45.2752 15.2169 45.2711 15.2752C45.2711 15.2752 45.2669 15.2752 45.2669 15.271C45.2502 15.6752 45.2377 16.0794 45.2086 16.4877C45.2086 16.4877 45.2086 16.4877 45.2086 16.4919C45.0502 18.8294 44.6836 21.1919 44.1252 23.4835H44.0919C44.0919 23.4877 44.0919 23.4919 44.0877 23.496H43.7044H42.9211H42.6627H41.9919C41.9544 23.3085 41.9086 23.121 41.8502 22.9377C42.1586 22.8294 42.3836 22.5377 42.3836 22.1919C42.3836 21.7502 42.0252 21.3919 41.5836 21.3919C41.4252 21.3919 41.2836 21.4502 41.1586 21.5335C40.8211 21.0294 40.4127 20.5835 39.9294 20.221C39.9919 20.1085 40.0377 19.9835 40.0377 19.846C40.0377 19.4044 39.6794 19.046 39.2377 19.046C38.9377 19.046 38.6836 19.221 38.5461 19.4669C38.0211 19.2752 37.4586 19.1544 36.8711 19.1335C36.8752 19.1335 36.8794 19.1294 36.8836 19.1252C36.8086 19.121 36.7377 19.1127 36.6627 19.1127C36.5877 19.1127 36.5169 19.121 36.4419 19.1252C36.4461 19.1252 36.4502 19.1294 36.4586 19.1335C36.0044 19.1502 35.5711 19.2377 35.1544 19.3585C35.0086 19.171 34.7919 19.046 34.5377 19.046C34.0961 19.046 33.7377 19.4044 33.7377 19.846C33.7377 19.896 33.7586 19.9377 33.7669 19.9877C33.1794 20.3627 32.6586 20.8377 32.2544 21.4085C32.2336 21.4085 32.2127 21.396 32.1919 21.396C31.7502 21.396 31.3919 21.7544 31.3919 22.196C31.3919 22.3877 31.4711 22.5585 31.5836 22.696C31.5669 22.746 31.5419 22.7877 31.5252 22.8377C31.5211 22.8335 31.5169 22.8335 31.5127 22.8335C31.4419 23.0502 31.3919 23.2752 31.3461 23.5002H30.4169H26.4502H24.9294H20.6502H16.9794C16.4877 21.0044 14.2877 19.1169 11.6502 19.1169C9.01273 19.1169 6.80856 21.0002 6.3169 23.496H2.67523V15.9544C2.67523 15.0752 3.23356 14.2835 4.06273 13.9877L9.3544 12.121H22.6377C23.2211 12.121 23.6919 11.6502 23.6919 11.0669V2.1252H41.6252H42.4419H43.0252H43.2086C43.5961 3.02103 43.9336 3.99186 44.2169 5.0252C44.1252 4.99186 44.0294 4.96686 43.9294 4.96686C43.4877 4.96686 43.1294 5.3252 43.1294 5.76686C43.1294 6.20853 43.4877 6.56686 43.9294 6.56686C44.1711 6.56686 44.3794 6.45436 44.5252 6.28353C44.8794 7.88353 45.1169 9.6002 45.2211 11.3877C45.2586 12.0085 45.2836 12.6377 45.2919 13.271C45.3002 13.3752 45.2961 13.4794 45.2961 13.5877Z" fill="#DC1E36"/>
</svg>
