<svg width="22" height="21" viewBox="0 0 22 21" fill="none" xmlns="http://www.w3.org/2000/svg">
<path fill-rule="evenodd" clip-rule="evenodd" d="M19.4945 0.6174C19.4634 0.268689 19.166 0.00084833 18.8088 0H13.0402C12.8543 0.000747027 12.6767 0.0749469 12.5474 0.2058C12.4155 0.336104 12.3443 0.513814 12.3502 0.6972V0.7644C12.3502 1.95667 11.364 2.9232 10.1474 2.9232C8.93075 2.9232 7.9445 1.95667 7.9445 0.7644V0.6972C7.95324 0.514961 7.88504 0.337233 7.75593 0.2058C7.62476 0.0751011 7.44584 0.00103465 7.25879 0H3.31164C2.95956 0.00960341 2.67138 0.277542 2.64307 0.6216L0.928786 20.013C0.910644 20.203 0.975249 20.3916 1.10667 20.5324C1.23809 20.6732 1.42408 20.753 1.61879 20.7522H20.5359C20.7306 20.753 20.9166 20.6732 21.048 20.5324C21.1795 20.3916 21.2441 20.203 21.2259 20.013L19.4945 0.6174ZM14.5831 19.3956H2.37737L3.9288 1.35661H6.59451C6.88401 3.0504 8.37993 4.29127 10.1324 4.29127C11.8848 4.29127 13.3807 3.0504 13.6702 1.35661H16.1345L14.5831 19.3956ZM18.3845 19.3284V19.3956H19.7859L19.6702 18.2028C19.5894 18.2611 19.492 18.2934 19.3917 18.2952C19.1053 18.2952 18.8731 18.0677 18.8731 17.787C18.8731 17.5063 19.1053 17.2788 19.3917 17.2788C19.4607 17.2784 19.5291 17.2912 19.5931 17.3166L19.4131 15.3048C19.1415 15.306 18.9157 15.1 18.8976 14.8345C18.8794 14.5689 19.0752 14.3353 19.3445 14.301L19.1602 12.2472C19.0017 12.1635 18.9005 12.0036 18.8945 11.8272C18.896 11.6753 18.9667 11.532 19.0874 11.4366L18.2302 1.77659C18.1382 1.85769 18.0196 1.90387 17.8959 1.90679C17.7556 1.90528 17.6215 1.84941 17.5231 1.75139L16.6659 11.445C16.8032 11.5418 16.882 11.6994 16.8759 11.865C16.8741 12.0536 16.7649 12.2253 16.5931 12.3102L16.4174 14.3514C16.6771 14.3772 16.8751 14.5911 16.8759 14.847C16.8759 14.9818 16.8213 15.111 16.7241 15.2063C16.6268 15.3017 16.4949 15.3552 16.3574 15.3552H16.3231L16.1474 17.3712C16.2126 17.3444 16.2824 17.3302 16.3531 17.3292C16.6395 17.3292 16.8717 17.5567 16.8717 17.8374C16.8717 18.1181 16.6395 18.3456 16.3531 18.3456C16.2515 18.3431 16.153 18.3109 16.0702 18.2532L15.9717 19.3956H17.3474C17.3453 19.3732 17.3453 19.3507 17.3474 19.3284C17.3474 19.1468 17.4462 18.9791 17.6067 18.8883C17.7671 18.7975 17.9648 18.7975 18.1252 18.8883C18.2857 18.9791 18.3845 19.1468 18.3845 19.3284Z" fill="#DD0031"/>
</svg>
